<?xml version="1.0" standalone="no"?><!DOCTYPE svg PUBLIC "-//W3C//DTD SVG 1.1//EN" "http://www.w3.org/Graphics/SVG/1.1/DTD/svg11.dtd"><svg t="1505398209651" class="icon" style="" viewBox="0 0 1024 1024" version="1.1" xmlns="http://www.w3.org/2000/svg" p-id="1022" xmlns:xlink="http://www.w3.org/1999/xlink" width="200" height="200"><defs><style type="text/css"></style></defs><path d="M11.013 511.393c0 0 0 0 0 0 0 277.022 224.571 501.593 501.593 501.593 277.022 0 501.593-224.571 501.593-501.593 0 0 0 0 0 0 0-277.022-224.571-501.593-501.593-501.593-277.022 0-501.593 224.571-501.593 501.593z" fill="#FFFFFF" p-id="1023"></path><path d="M28.004 511.393c0 0 0 0 0 0 0 267.638 216.964 484.603 484.603 484.603 267.638 0 484.603-216.964 484.603-484.603 0 0 0 0 0 0 0-267.638-216.964-484.603-484.603-484.603-267.638 0-484.603 216.964-484.603 484.603z" fill="#E5E5E5" p-id="1024"></path><path d="M793.951 679.254c-17.346-16.57-36.247-46.346-128.159-59.937s-75.601-60.585-76.249-63.433c0.13-7.249 3.365-37.801 3.365-37.801s29.645-24.596 43.626-64.727c22.137-13.981 30.681-15.923 34.305-32.105 0 0 7.508-60.973-16.311-60.973 0 0-9.968 1.553-6.732-12.686s2.071-58.901 0.517-74.823c-1.553-15.923 2.977-61.232-30.292-67.574-22.784-4.272-25.374 2.201-36.506 0.647-11.133-1.553-24.337-30.422-45.051-30.422l-42.85 6.861c-20.583 0-17.476 6.343-28.609 7.898-11.133 1.553 2.201-1.553-31.069 4.79-33.399 6.343-45.051 49.191-46.733 65.115-1.553 15.923-1.942 60.454-0.907 84.274 3.237 14.239-7.898 14.239-7.898 14.239-19.936-1.295-11.004 60.973-11.004 60.973 2.848 15.276-1.036 22.914 28.609 34.822 14.111 40.13 49.969 60.454 49.969 60.454s1.812 25.761 2.331 44.144c-2.977-1.553 9.709 46.862-82.204 60.454s-109.518 43.366-126.864 59.937c-17.346 16.57-16.053 93.077-16.053 93.077h591.862c0-0.13-3.754-76.637-21.101-93.206z" fill="#CCCCCC" p-id="1025"></path></svg>