<?xml version="1.0" standalone="no"?><!DOCTYPE svg PUBLIC "-//W3C//DTD SVG 1.1//EN" "http://www.w3.org/Graphics/SVG/1.1/DTD/svg11.dtd"><svg t="1513866030155" class="icon" style="" viewBox="0 0 1024 1024" version="1.1" xmlns="http://www.w3.org/2000/svg" p-id="7259" xmlns:xlink="http://www.w3.org/1999/xlink" width="200" height="200"><defs><style type="text/css"></style></defs><path d="M377.024 55.68c40.424 40.368 127 169.416 100.72 195.664-26.088 26.24-155.24-60.424-195.592-100.76-40.368-40.328-51.816-94.352-25.6-120.536 26.144-26.2 80.168-14.696 120.472 25.632z m269.928 0c-40.368 40.368-126.928 169.416-100.728 195.664 26.16 26.24 155.304-60.424 195.664-100.76 40.36-40.328 51.808-94.352 25.592-120.536-26.144-26.2-80.168-14.696-120.528 25.632z" fill="#E5226B" p-id="7260"></path><path d="M477.744 251.344c-26.088 26.24-155.24-60.424-195.592-100.76-40.368-40.328-51.816-94.352-25.6-120.536m289.672 221.296c26.16 26.24 155.304-60.424 195.664-100.76 40.36-40.328 51.808-94.352 25.592-120.536" fill="#C9005B" p-id="7261"></path><path d="M952.656 927.456c0 44.496-36.056 80.544-80.544 80.544H151.856c-44.456 0-80.512-36.056-80.512-80.544V319.984c0-44.512 36.056-80.568 80.512-80.568h720.256c44.496 0 80.544 36.056 80.544 80.568v607.472z" fill="#EDA02F" p-id="7262"></path><path d="M840.608 239.408H151.856c-44.456 0-80.512 36.056-80.512 80.568v607.472c0 44.496 36.056 80.544 80.512 80.544h153.208l535.544-768.584z" fill="#F5B146" p-id="7263"></path><path d="M544.264 1007.84l-0.752-761.016c0-17.408-14.088-31.504-31.504-31.504s-31.504 14.096-31.504 31.504l0.736 761.016h63.024z" fill="#0092D2" p-id="7264"></path><path d="M512.016 1007.84h32.248V247.592a31.496 31.496 0 0 0-31.504-31.504" fill="#0085BF" p-id="7265"></path></svg>