<svg id="图层_1" data-name="图层 1" xmlns="http://www.w3.org/2000/svg" viewBox="0 0 200 200"><defs><style>.cls-1{fill:#f9bb08;}.cls-2{fill:#fdd011;}.cls-3{fill:#9c6601;}.cls-4{fill:#fff582;}</style></defs><title>goldbeans</title><path class="cls-1" d="M2.29,116.49h0a30.75,30.75,0,0,0,2.42,3.76c8.35,11.23,50.6,23.49,77,3.56s31.21-50.62,19.65-74a28.81,28.81,0,0,1,6.7,8.32c12.56,23.65,7.71,57.38-20.27,78.5s-64,18.26-79.93-2.84a27.23,27.23,0,0,1-5.57-17.29Z"/><path class="cls-2" d="M40.15,53.22c18.92-21,44-18.28,61.19-3.44.18.35.35.71.52,1.07l0,.07q.49,1.07.95,2.15l0,.09.41,1,0,.07,0,0c.15.36.28.73.42,1.1h0l0,.1c.11.29.21.58.31.88l.06.18,0,.1q.37,1.07.69,2.16l.07.24c.08.29.17.58.25.87l.1.37c.07.26.13.51.2.76s.07.27.1.41.12.49.17.73l.09.42c.05.24.11.49.16.73l.09.42c.05.25.1.5.14.75s0,.27.07.4.09.54.14.81c0,.12,0,.23.06.34.05.35.11.7.16,1.06v.09c.06.39.11.79.15,1.18,0,.06,0,.12,0,.17,0,.33.07.66.11,1,0,.11,0,.23,0,.34q0,.41.07.82l0,.4c0,.26,0,.52.05.78s0,.27,0,.41,0,.51,0,.77,0,.28,0,.41,0,.53,0,.79,0,.26,0,.39q0,.43,0,.86c0,.1,0,.21,0,.32q0,.55,0,1.09a.38.38,0,0,1,0,.08c0,.4,0,.81-.06,1.22v.07c0,.37,0,.73-.07,1.1,0,.1,0,.21,0,.32q0,.43-.08.86c0,.12,0,.25,0,.37s-.06.54-.09.81,0,.26,0,.4-.07.53-.1.79l-.06.4c0,.27-.08.53-.13.8l-.06.38c0,.29-.1.58-.15.86q0,.16-.06.32-.1.53-.21,1.06s0,.08,0,.12q-.13.61-.27,1.21v0c-.09.38-.18.75-.28,1.13l-.08.3c-.08.28-.16.57-.24.86l-.11.38-.23.79-.12.4-.24.77c0,.13-.09.27-.14.41l-.26.77-.14.4-.29.81-.13.34-.37,1-.07.19q-.24.59-.49,1.17v0c-.16.37-.32.74-.49,1.1l-.14.31-.38.82-.19.39-.37.74-.21.41-.37.71-.22.42-.39.71-.23.4-.43.73-.22.37c-.17.28-.34.56-.51.83l-.16.26c-.23.36-.47.73-.7,1.09l0,.06-.69,1-.22.32-.53.74-.29.4-.49.67-.31.41-.5.64-.33.41-.52.64-.33.4-.55.64-.33.38-.63.71-.26.3-.93,1,0,0-.91.94-.31.31-.67.66-.38.36-.63.6-.42.39-.62.57-.44.39-.64.56-.44.38-.68.57L84,122l-.77.62-.36.29-1.16.9c-.41.31-.83.61-1.25.91s-.84.58-1.27.86l-.18.11C52.53,142.9,12.85,131,4.7,120.24a33.67,33.67,0,0,1-2-3.06h0l-.38-.69c-.66-22,18.95-42.26,37.86-63.26Z"/><path class="cls-3" d="M44.69,67C55.56,56.63,62.15,45.47,66.31,49.4S62.75,63.33,51.87,73.7,32.17,87.24,30.07,85s3.73-7.67,14.61-18Z"/><path class="cls-4" d="M43,96.36a4.55,4.55,0,0,0-9,1.39h0a4.55,4.55,0,1,0,9-1.39Z"/><path class="cls-4" d="M20.69,94.73a8.74,8.74,0,1,0,10,7.31A8.74,8.74,0,0,0,20.69,94.73Z"/><path class="cls-1" d="M196.36,104.13A24.89,24.89,0,0,1,191.53,120c-14.24,19.53-47.11,22.71-73,3.83S87.68,74.23,98.79,52.42a26.34,26.34,0,0,1,6-7.71c-10.2,21.57-5.32,49.54,19.1,67.34s62.85,5.94,70.3-4.45a28.11,28.11,0,0,0,2.15-3.47h0Z"/><path class="cls-2" d="M160.77,46.9C178.39,65.8,196.62,84,196.36,104.13l-.34.64h0a30.78,30.78,0,0,1-1.81,2.83c-7.28,10-43.36,21.45-67.81,6.12l-.16-.1c-.39-.25-.79-.51-1.18-.77s-.77-.53-1.15-.81l-1.07-.8-.33-.26-.71-.56-.4-.32-.63-.51-.41-.34-.59-.5-.41-.35-.58-.51-.39-.35-.58-.54-.35-.33-.62-.6-.29-.28-.84-.85,0,0-.86-.9-.25-.27-.58-.64-.3-.34-.51-.58-.31-.36-.48-.58-.31-.37-.46-.58-.29-.37-.46-.6-.27-.36-.49-.67-.21-.29-.64-.92,0-.05-.66-1-.15-.24-.48-.75-.2-.33-.4-.66-.21-.36-.37-.64-.21-.38-.35-.64-.2-.37-.35-.67-.18-.35-.36-.74-.14-.28c-.16-.33-.31-.66-.46-1v0L104,87.53l-.07-.17-.36-.87-.12-.31-.28-.74-.13-.36-.25-.7-.13-.37-.23-.7-.12-.37-.22-.72-.1-.34c-.08-.26-.15-.53-.23-.79l-.08-.27c-.09-.34-.18-.69-.27-1v0q-.14-.55-.26-1.1s0-.07,0-.11q-.11-.48-.21-1,0-.14-.06-.29c-.05-.26-.1-.52-.15-.78l-.06-.35-.13-.73-.06-.36q-.06-.36-.11-.72c0-.12,0-.24,0-.36s-.06-.49-.1-.74,0-.23,0-.34q0-.39-.08-.79c0-.09,0-.19,0-.29,0-.33-.06-.67-.08-1v-.07c0-.37,0-.74-.07-1.11a.35.35,0,0,1,0-.07q0-.5,0-1c0-.1,0-.2,0-.29q0-.39,0-.78,0-.18,0-.36c0-.24,0-.48,0-.72s0-.25,0-.38,0-.47,0-.71,0-.25,0-.37,0-.47,0-.71l0-.36q0-.38.05-.75c0-.1,0-.21,0-.31,0-.3.05-.6.08-.9,0-.05,0-.11,0-.16,0-.36.08-.72.12-1.08v-.09c0-.33.08-.64.13-1,0-.1,0-.2,0-.31s.07-.5.12-.74,0-.24.06-.37.08-.45.12-.69l.07-.38c0-.22.09-.45.13-.67l.08-.38c0-.22.1-.45.15-.67s.06-.25.09-.38.11-.46.17-.7l.08-.34c.07-.26.14-.53.21-.8l.06-.22q.28-1,.6-2l0-.09.05-.16c.09-.27.18-.54.27-.8l0-.09h0c.12-.34.24-.68.37-1l0,0,0-.06.36-.95,0-.08q.4-1,.83-2l0-.06c.15-.33.3-.66.46-1,15.52-13.83,38.36-16.69,56,2.2Z"/><path class="cls-3" d="M156.85,59.57c10.1,9.31,15.52,14.22,13.63,16.26s-10-.72-20.1-10-17.3-18.32-13.57-22,9.93,6.44,20,15.75Z"/><path class="cls-4" d="M158.84,86.37a4.16,4.16,0,1,0,8.24,1.13h0a4.16,4.16,0,0,0-8.24-1.13Z"/><path class="cls-4" d="M170.21,91.37a8,8,0,1,0,9-6.84A8,8,0,0,0,170.21,91.37Z"/><path class="cls-1" d="M97.92,71s62.25,26.27,72.21,52.51c-5.62,8.54-11,3.63-11,3.63l-31.59-3L98.77,87.81Z"/><path class="cls-1" d="M95.14,76.46s-20.92.34-32.33,16a29.1,29.1,0,0,0-5.66,19.9c.21,4.06,16.22,9.6,16.22,9.6l17.08-13.87L107.25,84Z"/><path class="cls-1" d="M165.06,127.53a24.89,24.89,0,0,1,.81,16.58c-6.83,23.19-36.7,37.25-67.44,28.2S52.67,136,55.78,111.7a26.34,26.34,0,0,1,3-9.28c-2.34,23.74,11.68,48.44,40.67,57s61.18-15.57,64.69-27.87a28.11,28.11,0,0,0,.86-4h0Z"/><path class="cls-2" d="M112.28,85.63c22.95,11.86,46.26,22.88,52.78,41.89q0,.36-.11.71h0a30.78,30.78,0,0,1-.75,3.27c-3.49,11.86-33.6,34.8-61.79,28.61l-.19,0-1.37-.33-1.36-.38L98.23,159l-.4-.13-.86-.28-.48-.16-.76-.27-.5-.18-.73-.28-.5-.19-.71-.28-.48-.2-.73-.31-.44-.19-.79-.35-.37-.17-1.08-.51-.05,0-1.12-.56-.32-.17-.76-.4-.4-.22-.68-.38-.41-.24L85,153.1l-.41-.25-.63-.39-.4-.25-.64-.41-.38-.24-.69-.46-.29-.2-.92-.65,0,0-1-.71-.22-.17-.71-.55-.3-.24L77.8,148l-.32-.27-.56-.48-.33-.29-.55-.49-.32-.28-.55-.51-.29-.27-.59-.58-.22-.22-.77-.78,0,0-.79-.84-.12-.14-.63-.7-.22-.25-.51-.6-.24-.29-.47-.57-.25-.3-.46-.58-.24-.31-.45-.6-.21-.29-.48-.66L68,137.5l-.6-.88,0,0-.62-.95-.06-.09q-.27-.41-.52-.84l-.15-.25-.41-.69-.17-.31-.37-.64-.18-.32-.34-.64-.17-.33-.34-.66-.15-.31-.34-.71-.12-.26-.42-.92,0-.06-.44-1a.35.35,0,0,1,0-.07l-.37-.93-.1-.27-.27-.73-.12-.33-.24-.68-.12-.36c-.07-.23-.15-.45-.22-.67s-.08-.24-.11-.36-.14-.45-.21-.68l-.1-.35-.21-.73-.08-.3c-.08-.29-.15-.58-.23-.88l0-.15c-.09-.35-.17-.71-.25-1.06l0-.09c-.07-.32-.14-.63-.21-1l-.06-.31c0-.25-.1-.49-.14-.74s0-.24-.07-.37-.08-.45-.12-.69,0-.26-.06-.38-.07-.45-.1-.67,0-.26-.06-.39S59,114,59,113.78s0-.25,0-.38-.05-.47-.08-.71,0-.23,0-.35c0-.27,0-.55-.07-.82l0-.23q-.08-1-.11-2.07V109c0-.29,0-.57,0-.85V108h0c0-.36,0-.72,0-1.07v-.11c0-.34,0-.68,0-1v-.08q0-1.07.12-2.15v-.07c0-.36.06-.72.1-1.08,10-18.25,30.5-28.64,53.44-16.79Z"/><path class="cls-3" d="M112.85,98.88c12.65,5.37,19.4,8.16,18.31,10.72s-9.66,2.69-22.31-2.67S86.39,95.5,88.68,90.8s11.52,2.72,24.17,8.09Z"/><path class="cls-4" d="M123.76,123.44a4.16,4.16,0,1,0,8.14-1.71h0a4.16,4.16,0,0,0-8.14,1.71Z"/><path class="cls-4" d="M136.14,124.32a8,8,0,1,0,6.17-9.47A8,8,0,0,0,136.14,124.32Z"/></svg>