<svg id="图层_1" data-name="图层 1" xmlns="http://www.w3.org/2000/svg" xmlns:xlink="http://www.w3.org/1999/xlink" viewBox="0 0 200 200"><defs><style>.cls-1{fill:none;}.cls-2{fill:#e7681c;}.cls-3{fill:#9b462a;}.cls-4{fill:#d34a1b;}.cls-5{fill:#c24114;}.cls-6{fill:#f39132;}.cls-7{fill:#ffca68;}.cls-8{fill:#f9bb08;}.cls-9{fill:#fdd011;}.cls-10{fill:#9c6601;}.cls-11{fill:#fff582;}.cls-12{clip-path:url(#clip-path);}</style><clipPath id="clip-path"><path class="cls-1" d="M154.49,28.52c0,5.86-23.08,10.61-51.56,10.61S51.38,34.38,51.38,28.52s6.09-30,34.56-30c7.12,0,43.43.05,49.6.59C154,.76,154.49,24.12,154.49,28.52Z"/></clipPath></defs><title>goldrandom</title><path class="cls-2" d="M152.89,51.94c-1.55-14.54,12.06-12.68,9.9-29.08-1.24-10.52-30.62-12.68-60.32-12.68S43.39,12.35,42.16,22.87C40,39.26,53.6,37.4,52.06,51.94,50.82,74.52,23,105.14,27.31,135.15s41.14,48.25,75.16,48.25,70.83-18.25,75.16-48.25S154.13,74.52,152.89,51.94Z"/><ellipse class="cls-3" cx="102.93" cy="28.52" rx="51.56" ry="10.61"/><path class="cls-4" d="M152.89,51.94c-.91-8.54,3.4-11.43,6.68-15.68-10.69,6.84-30.76,11.5-55.14,11.7-30,.25-49.21-6.24-49.22-6.25C56.46,49.47,57,54.17,56.71,58c-1,14.49-20.74,31.23-19.74,72a88,88,0,0,0,8.25,34.67C60,176.63,81.77,183.4,102.47,183.4c34,0,70.83-18.25,75.16-48.25S154.13,74.52,152.89,51.94Z"/><path class="cls-5" d="M159.57,36.27a55.43,55.43,0,0,1-12.31,5.6c-3.32,5.75-4.7,11.13-3.59,17.45C145.15,67.77,165,98.42,167.13,121s-21.72,67-78.14,61.41a99.22,99.22,0,0,0,13.48,1c34,0,70.83-18.25,75.16-48.25s-23.51-60.63-24.75-83.21C152,43.41,156.29,40.51,159.57,36.27Z"/><path class="cls-6" d="M144,152.4l-.9,0c-12.45-.53-26.82-8.07-26.3-27.59.48-18.2,11-31.18,26.21-32.31h.11c13-.39,27.17,8.64,28.09,29.75.47,10.92-4.18,18-8.17,22A27.88,27.88,0,0,1,144,152.4Zm-.63-54.23c-12.28.94-20.48,11.44-20.88,26.77-.51,19.35,15.82,21.54,20.84,21.75a22,22,0,0,0,15.67-6.53c3.18-3.18,6.89-8.84,6.51-17.69C164.81,105.18,153.95,97.82,143.42,98.16Z"/><path class="cls-6" d="M144.34,106.8c8-.29,15.07,5.5,15.56,16.58a15.54,15.54,0,0,1-15.56,16.68c-6.9-.29-14.91-5.62-14.59-15.14C130.12,113.94,136.46,107.38,144.34,106.8Z"/><path class="cls-7" d="M156.44,52.79a4.28,4.28,0,0,0-6-.19c-5.25,4.93-14.94,9.58-50,10.27A109.45,109.45,0,0,1,76.65,61h0c-15.28-3.05-21.9-8.65-22.07-8.8a4.27,4.27,0,0,0-5.77,6.3A30.85,30.85,0,0,0,54.08,62a31.6,31.6,0,0,0-9.63,7.76,13.37,13.37,0,0,0-2.92,11.39A15.79,15.79,0,0,0,49,91.95a11.89,11.89,0,0,0,5.6,1.31,15.64,15.64,0,0,0,5.55-1,17.32,17.32,0,0,0,3.19-1.63,12.1,12.1,0,0,0,1.32,1.68c3.85,4.08,9.37,4.37,10.81,4.37h.3c.73,0,7.29-.31,11.6-5a13.93,13.93,0,0,0,3.43-10.68A21.11,21.11,0,0,0,87.59,71c3.17.25,6.51.41,10.12.41.94,0,1.91,0,2.88,0,35.92-.71,47.93-5.34,55.65-12.58A4.28,4.28,0,0,0,156.44,52.79ZM57.15,84.23a5.46,5.46,0,0,1-4.09.18,7.49,7.49,0,0,1-3.14-4.81A4.91,4.91,0,0,1,51,75.28a26.06,26.06,0,0,1,11.71-7.69,23.66,23.66,0,0,1,.72,4.51,28.29,28.29,0,0,0-2.16,8.57c0,.1,0,.19,0,.29A9.12,9.12,0,0,1,57.15,84.23Zm24,1.59c-1.57,1.74-4.54,2.23-5.58,2.27,0,0-3,0-4.64-1.69a4.88,4.88,0,0,1-1.13-3.06,20.48,20.48,0,0,0,.89-2A23,23,0,0,0,72,74a16.73,16.73,0,0,1,3-4c2.69,2,7,5.9,7.31,11.5A5.63,5.63,0,0,1,81.13,85.82Z"/><path class="cls-5" d="M38.58,147.47l-1,9.68C48.69,170.24,67.15,179,86.5,182.09c2-10,1.67-23.19-5.32-31C70.61,139.33,38.58,147.47,38.58,147.47Z"/><path class="cls-8" d="M73.55,159.58a13.91,13.91,0,0,1,3,8.76c0,13.51-13.81,25.75-31.71,25.73s-30.25-12.26-32.4-25.78a14.72,14.72,0,0,1,.15-5.45C15.11,175.94,26.51,187,43.4,187s30.35-18,30.29-25.12a15.7,15.7,0,0,0-.17-2.28h0Z"/><path class="cls-9" d="M38.67,145.43c14.17,2.75,28.4,5,34.89,14.15a1.32,1.32,0,0,1,.05.4h0a17.2,17.2,0,0,1,.11,1.87c0,6.91-12.54,23.94-28.62,25.06l-.1,0-.79,0h-.79l-.74,0h-1l-.45,0-.3,0-.44,0-.3,0-.42,0-.29,0-.44-.05-.27,0-.48-.06-.23,0-.66-.1h0l-.69-.12-.2,0-.47-.09-.25-.05-.42-.1-.26-.06-.42-.13-.26-.07-.4-.11-.25-.07-.41-.12-.24-.07-.44-.14-.19-.06-.6-.2h0l-.65-.22-.14-.06-.47-.18-.2-.08-.42-.21-.21-.09-.38-.17-.22-.1-.37-.18-.22-.1-.38-.19-.2-.1-.41-.22-.15-.08-.54-.3h0l-.56-.33-.09-.06-.45-.28-.16-.1-.37-.24-.17-.12-.34-.23-.18-.12-.34-.24-.18-.13-.34-.25-.16-.12-.36-.28-.15-.07-.46-.38h0l-.48-.41,0,0-.41-.37-.12-.11-.33-.31-.14-.14-.3-.28-.15-.14-.28-.29-.14-.15-.29-.3-.13-.14-.29-.33-.11-.12-.37-.43v0l-.39-.47v0l-.34-.44-.1-.13-.26-.35-.12-.16-.24-.33-.12-.17-.22-.32-.12-.18-.22-.33-.11-.17-.23-.36-.09-.15-.26-.44,0-.08-.3-.53v0l-.27-.5-.08-.16a2.69,2.69,0,0,0-.19-.37c-.06-.13,0-.13-.1-.19a1.87,1.87,0,0,1-.17-.35c-.06-.12,0-.14-.09-.19a1.91,1.91,0,0,1-.16-.34c-.05-.11,0-.14-.09-.2a1.12,1.12,0,0,1-.19-.34l-.06-.2c0-.07-.1-.24-.15-.37a.71.71,0,0,1-.06-.19,1.82,1.82,0,0,0-.17-.43l0-.12q-.2-.52-.38-1.09l0-.12-.13-.46,0-.08h0l-.17-.57,0-.06-.16-.54v0a10.87,10.87,0,0,1-.27-1.17v0a5.51,5.51,0,0,1-.12-.59c2.49-11.36,11.84-20.15,26-17.41Z"/><path class="cls-10" d="M41.06,152.44c7.63.89,11.68,1.32,11.5,2.86s-4.76,3-12.38,2.08-13.84-2.59-13.35-5.47,6.6-.35,14.23.53Z"/><path class="cls-11" d="M50.77,163.89a2.32,2.32,0,0,0,4.15-2.1l-.05-.1h0a2.32,2.32,0,0,0-4.09,2.2Z"/><path class="cls-11" d="M57.55,162.41a4.47,4.47,0,1,0,1.82-6.05h0A4.47,4.47,0,0,0,57.55,162.41Z"/><g class="cls-12"><path class="cls-8" d="M95.26,38h0a13.6,13.6,0,0,0,.22,2c1.08,6.09,15.38,19.29,29.76,16.6s22.34-13.88,22.39-25.42a12.74,12.74,0,0,1,1,4.61c.3,11.85-8.28,24.23-23.52,27.06S96.17,57.4,94,45.9A12,12,0,0,1,95.24,38Z"/><path class="cls-9" d="M122.65,20.41c11.62-4.57,21,1.44,24.89,10.72a4.77,4.77,0,0,1,0,.52v0a9.41,9.41,0,0,1,0,1v0l0,.48v.05l-.05.51h0v.07l0,.41v.11q-.07.51-.16,1v.11a1.57,1.57,0,0,0-.07.39.62.62,0,0,1,0,.17c0,.11-.07.28-.07.34l0,.18a1,1,0,0,1-.11.32c0,.06,0,.08,0,.18a1.65,1.65,0,0,1-.08.32c0,.05,0,.07,0,.18a1.62,1.62,0,0,1-.09.33c0,.06,0,.06-.05.17a2.33,2.33,0,0,0-.1.35l0,.15c-.05.17-.1.32-.15.47v0c-.06.16-.11.33-.17.5v.07l-.15.41-.05.14-.14.34-.07.16-.13.32-.07.17-.14.31-.08.17-.15.32-.07.15-.17.34-.06.13-.22.43a.17.17,0,0,1,0,0l-.26.46v0L144,44l-.07.12-.2.32-.09.14-.2.3-.1.15-.2.29-.1.15-.21.29-.1.14-.23.31-.08.11-.29.38,0,0-.35.43h0l-.33.39-.12.08-.26.29-.12.13-.25.27-.13.14-.25.26-.14.13-.25.25-.13.13-.28.26-.12.11-.34.31L139,50l-.42.37h0l-.41.34-.12.1-.31.25-.15.12-.29.22-.17.12-.29.21-.17.12-.29.2-.17.11-.32.25-.16.1-.37.23-.11.07-.52.29h0l-.47.27-.15.08-.35.19-.19.1-.33.17-.2.1-.32.16-.21.1-.34.17-.21.1-.35.15-.2.09-.39.15-.16.07-.57.21h0l-.54.19-.19.06-.4.13-.22.07-.37.11-.24.07-.36.1-.25.07-.37.1-.25.06-.38.09-.24.05-.43.09-.2,0-.63.13-.67.12-.68.09h-.09C109.91,58.32,96.55,45.8,95.45,39.92a14.89,14.89,0,0,1-.2-1.61h0a1.14,1.14,0,0,1,0-.35c4.08-8.83,15.84-13,27.47-17.55Z"/><path class="cls-10" d="M121.78,26.76c6.35-2,11.16-5.08,12-2.7s-4.15,4.81-10.5,6.77-10.47,1.47-10.87.18,3-2.3,9.34-4.26Z"/><path class="cls-11" d="M114,35.56a2,2,0,0,0-2.56,1.24h0l0,.09A2,2,0,1,0,114,35.56Z"/><path class="cls-11" d="M106.81,33h0a3.87,3.87,0,1,0,2.51,4.86A3.87,3.87,0,0,0,106.8,33Z"/><path class="cls-8" d="M119.11,42.11a13.91,13.91,0,0,1-1.55,9.14C111,63.09,93.06,67.17,77.37,58.54s-20.61-25.31-16-38.19a14.72,14.72,0,0,1,2.75-4.7c-4.13,12.67.56,27.83,15.35,36s35.25-1.15,38.64-7.44a15.7,15.7,0,0,0,.95-2.08h0Z"/><path class="cls-9" d="M95.34,12.91c11.1,9.23,22.49,18,23.77,29.19a1.32,1.32,0,0,1-.15.37h0a17.2,17.2,0,0,1-.8,1.69c-3.33,6.05-22.51,15-37.15,8.19l-.1,0L80.2,52l-.7-.37-.64-.37-.2-.12-.44-.26L78,50.74l-.38-.24-.25-.16L77,50.1l-.25-.16-.35-.24-.24-.17-.36-.26-.22-.16-.39-.29L75,48.7l-.53-.41h0l-.54-.44-.15-.13-.37-.31-.19-.17-.33-.29-.19-.18-.31-.31-.19-.19-.3-.29-.19-.18-.3-.3-.18-.18L70.87,45l-.13-.14-.42-.47h0l-.46-.51-.1-.12-.32-.39-.13-.17L69,42.8l-.14-.19-.25-.33-.15-.2-.24-.33-.14-.19-.24-.34L67.75,41l-.25-.39-.09-.15L67.08,40h0l-.33-.55,0-.09-.26-.46-.09-.16-.21-.39-.1-.19-.19-.37-.1-.19-.18-.37-.09-.2-.17-.38-.08-.18L65,36l-.1-.14-.22-.55h0l-.22-.59,0-.06q-.1-.26-.18-.52L64.24,34l-.14-.43L64,33.4,63.92,33l-.06-.2-.11-.39-.05-.2-.11-.4,0-.19-.1-.43,0-.16-.12-.55v0l-.12-.6v0l-.09-.55,0-.16L63,28.69l0-.19,0-.4,0-.21c0-.13,0-.26,0-.39s0-.14,0-.21,0-.26,0-.4v-.2l0-.42v-.17c0-.17,0-.33,0-.51l0-.08c0-.2,0-.41,0-.61v0c0-.18,0-.36,0-.57v-.18a2.69,2.69,0,0,0,0-.42c0-.14,0-.13,0-.21a1.87,1.87,0,0,1,0-.39c0-.14,0-.14,0-.21a1.91,1.91,0,0,1,0-.38c0-.12,0-.14,0-.22a1.12,1.12,0,0,1,0-.38l0-.21c0-.07,0-.26,0-.4a.71.71,0,0,1,0-.19,1.82,1.82,0,0,0,.06-.46l0-.13q.08-.56.19-1.14l0-.12.1-.46,0-.08h0l.13-.58V18l.12-.55v0A10.87,10.87,0,0,1,64,16.3v0a5.51,5.51,0,0,1,.18-.58c7.65-8.76,20.08-12,31.18-2.75Z"/><path class="cls-10" d="M94.06,20.21c6.26,4.45,9.61,6.78,8.7,8s-5.59.31-11.85-4.14S80,15.19,81.84,12.9s6,2.87,12.22,7.32Z"/><path class="cls-11" d="M97.06,34.92a2.32,2.32,0,0,0,4.65.15s0-.07,0-.11h0a2.32,2.32,0,0,0-4.65,0Z"/><path class="cls-11" d="M103.71,36.89a4.47,4.47,0,1,0,4.51-4.43h0A4.47,4.47,0,0,0,103.71,36.89Z"/></g></svg>