<?xml version="1.0" standalone="no"?><!DOCTYPE svg PUBLIC "-//W3C//DTD SVG 1.1//EN" "http://www.w3.org/Graphics/SVG/1.1/DTD/svg11.dtd"><svg t="1512239455345" class="icon" style="" viewBox="0 0 1024 1024" version="1.1" xmlns="http://www.w3.org/2000/svg" p-id="3745" xmlns:xlink="http://www.w3.org/1999/xlink" width="200" height="200"><defs><style type="text/css"></style></defs><path d="M978.94741 616.950284c8.244778 48.787146 2.254344 97.212042-23.109324 144.333246C854.927815 948.645778 572.02049 1015.589446 323.621097 881.83514 75.175655 748.086973-4.69544 485.812571 66.211493 282.282085c9.640568-27.659967 24.416086-52.52733 43.112913-74.420967-63.249533 200.287629 12.748349 438.505126 247.00258 564.639894C590.62522 898.641921 911.643538 749.346663 964.261942 649.834228c9.819646-18.559705 14.641465-32.840966 14.641465-32.840965l0.044003-0.042979z" fill="#F9BB08" p-id="3746"></path><path d="M600.266811 160.198585c176.185698 143.79601 357.011066 281.060257 378.680599 456.70565a317.746808 317.746808 0 0 1-2.206249 5.947456v0.044002c-2.299369 5.857405-6.442736 15.588023-12.389168 26.848484-51.578726 95.819322-352.596524 238.8499-584.238254 134.335545-0.496304-0.223081-1.036609-0.449231-1.531889-0.672312-3.740184-1.714038-7.479345-3.472078-11.172458-5.318123-3.694135-1.847068-7.387247-3.739161-11.03738-5.719258-3.469008-1.895163-6.936993-3.784186-10.31595-5.721305-1.080611-0.586354-2.116197-1.216711-3.197832-1.847068-2.297322-1.306762-4.594645-2.660596-6.891967-4.010337-1.306762-0.76748-2.568499-1.534959-3.874237-2.297322a455.100082 455.100082 0 0 1-6.081509-3.693112c-1.350764-0.813528-2.657526-1.666966-3.964288-2.480494-1.937119-1.216711-3.874237-2.430352-5.765307-3.692089-1.306762-0.857531-2.65855-1.710968-3.965312-2.567475-1.892093-1.261737-3.784186-2.478448-5.631254-3.741208-1.260713-0.853437-2.52245-1.710968-3.783163-2.567475-1.937119-1.305739-3.829212-2.657526-5.721305-4.009314-1.171686-0.810459-2.343371-1.620917-3.469008-2.431375-2.072195-1.486864-4.098341-2.973728-6.125511-4.459569-0.947582-0.719384-1.938142-1.396813-2.883677-2.115173a417.177378 417.177378 0 0 1-8.378831-6.398734 2.384303 2.384303 0 0 1-0.405229-0.317225 629.097952 629.097952 0 0 1-8.604982-6.845919c-0.855484-0.675382-1.665942-1.397836-2.476401-2.070148a656.731312 656.731312 0 0 1-5.856381-4.867868c-1.036609-0.856507-2.028193-1.757017-3.063779-2.613524-1.711991-1.486864-3.467985-2.972705-5.135974-4.457521-1.035586-0.946558-2.072195-1.849114-3.108804-2.792603-1.620917-1.486864-3.287883-2.973728-4.909823-4.460592-1.036609-0.945535-2.072195-1.937119-3.107781-2.88163-1.576915-1.486864-3.15383-2.973728-4.730745-4.502547-0.991584-0.946558-1.982144-1.939165-2.973728-2.8847-1.576915-1.577938-3.152806-3.108804-4.729721-4.686743-0.945535-0.942465-1.847068-1.847068-2.793626-2.790556-1.711991-1.75804-3.378957-3.515057-5.090948-5.227048-0.720408-0.766456-1.441838-1.485841-2.161223-2.25332a522.960633 522.960633 0 0 1-6.712888-7.251148c-0.135076-0.137123-0.225127-0.26913-0.360204-0.406252-2.342348-2.613524-4.685719-5.222955-6.938016-7.836479l-1.620917-1.89414c-1.711991-1.980097-3.423983-3.963265-5.090949-5.990435a144.227846 144.227846 0 0 1-2.161222-2.657526c-1.441838-1.757017-2.882654-3.560082-4.324492-5.316075-0.766456-0.991584-1.531889-1.983167-2.298346-2.926656a393.804041 393.804041 0 0 1-3.964288-5.138021c-0.765433-1.037632-1.531889-2.02717-2.298346-3.063778-1.305739-1.709945-2.567475-3.466961-3.828188-5.181-0.721431-0.989537-1.486864-2.026146-2.207272-3.015683a398.323984 398.323984 0 0 1-3.829212-5.408173c-0.675382-0.947582-1.305739-1.889023-1.982144-2.835582-1.351787-1.984191-2.703575-4.012384-4.055362-6.03853-0.494257-0.766456-1.035586-1.528819-1.530866-2.296299-1.755993-2.704598-3.514033-5.408173-5.226025-8.154727l-0.135077-0.22615a547.992749 547.992749 0 0 1-5.315052-8.69401c-0.270153-0.450255-0.541329-0.901533-0.810458-1.39886a585.358775 585.358775 0 0 1-4.145414-7.158026c-0.496304-0.857531-0.945535-1.714038-1.441838-2.567476-1.12666-2.031263-2.252297-4.058432-3.333932-6.084578-0.540306-0.989537-1.035586-1.981121-1.576915-2.973728a349.677031 349.677031 0 0 1-3.018753-5.764284c-0.540306-1.035586-1.035586-2.073218-1.576915-3.062755a322.525648 322.525648 0 0 1-2.882653-5.814426c-0.49528-1.033539-0.991584-2.026146-1.486864-3.060709a349.068164 349.068164 0 0 1-2.792603-5.992481 83.143629 83.143629 0 0 1-1.306762-2.882654c-0.99056-2.207271-1.937119-4.41352-2.928702-6.577812-0.315178-0.763386-0.675382-1.529843-0.990561-2.25025-1.215688-2.883677-2.432399-5.767354-3.604084-8.651031l-0.135077-0.269129a389.057947 389.057947 0 0 1-3.603061-9.279341c-0.090051-0.315178-0.226151-0.585331-0.316201-0.901533a250.962775 250.962775 0 0 1-2.972705-8.15268 52.219315 52.219315 0 0 0-0.855484-2.433422c-0.766456-2.207271-1.531889-4.41352-2.25332-6.66684l-0.945535-2.971681c-0.675382-2.072195-1.306762-4.146437-1.983167-6.217609-0.315178-1.037632-0.629333-2.072195-0.945535-3.107781a316.793086 316.793086 0 0 1-1.802042-6.172583c-0.315178-1.035586-0.584308-2.073218-0.856508-3.108804-0.584308-2.117221-1.125637-4.235464-1.710968-6.306636-0.270153-0.991584-0.540306-1.982144-0.765433-2.928703a361.329419 361.329419 0 0 1-1.666966-6.757914c-0.181125-0.810459-0.405229-1.665942-0.585331-2.476401-0.676405-2.883677-1.306762-5.767354-1.937118-8.648984-0.045025-0.182149-0.090051-0.406253-0.135077-0.587377-0.676405-3.198855-1.306762-6.39771-1.937118-9.595543-0.045025-0.225127-0.090051-0.405229-0.090051-0.630356a582.412676 582.412676 0 0 1-1.53189-8.648984c-0.135076-0.855484-0.270153-1.711991-0.405229-2.52245a301.784254 301.784254 0 0 1-1.036609-6.80294 72.078619 72.078619 0 0 0-0.449232-3.106757c-0.271176-2.118244-0.586354-4.191462-0.856507-6.30766-0.135076-1.081635-0.271176-2.162246-0.405229-3.288906-0.225127-2.072195-0.49528-4.145413-0.676406-6.172583-0.135076-1.079588-0.225127-2.207271-0.315178-3.287883-0.225127-2.071172-0.405229-4.14439-0.540306-6.26161-0.090051-1.081635-0.180102-2.118244-0.270152-3.197832a335.647503 335.647503 0 0 1-0.450255-6.622838c-0.045025-0.901533-0.135076-1.847068-0.180102-2.749624-0.134053-2.656503-0.270153-5.315052-0.35918-7.973601 0-0.450255-0.045025-0.945535-0.045026-1.394767-0.135076-3.198855-0.180102-6.39771-0.224104-9.595542v-0.766456c-0.046049-2.882654-0.046049-5.721305-0.046049-8.603959 0-0.900509 0.046049-1.802042 0.046049-2.747577 0.044002-2.208295 0.044002-4.415566 0.135076-6.622838 0.044002-1.082658 0.089028-2.163269 0.089028-3.288906 0.045025-2.02717 0.135076-4.055362 0.225127-6.127557 0.045025-1.12666 0.135076-2.296299 0.180102-3.42296 0.090051-1.982144 0.227174-4.010337 0.361227-5.991457 0.090051-1.12666 0.135076-2.298346 0.225128-3.423983 0.135076-1.982144 0.315178-4.00829 0.49528-5.990434 0.090051-1.127683 0.181125-2.25332 0.316202-3.378957 0.180102-2.073218 0.405229-4.145413 0.630356-6.262634 0.091074-1.035586 0.225127-2.02717 0.316202-3.062756 0.270153-2.387373 0.585331-4.819772 0.900509-7.208169l0.270153-2.026146a406.794913 406.794913 0 0 1 2.837628-18.064424l0.135077-0.811482 0.270152-1.485841c0.451278-2.477424 0.901533-4.910846 1.397837-7.343245l0.180102-0.856507v-0.090051c0.63138-3.108804 1.260713-6.17156 1.982144-9.234315l0.090051-0.361227 0.135076-0.584308c0.676405-2.928702 1.350764-5.811356 2.026146-8.695033l0.180102-0.721431a521.824763 521.824763 0 0 1 4.910847-18.289552l0.179078-0.586354c0.901533-3.063779 1.803066-6.126534 2.793626-9.145288C228.343103 68.614727 424.126138 16.403598 600.310813 160.15356l-0.044002 0.045025z" fill="#FDD011" p-id="3747"></path><path d="M581.165778 275.343045c99.19828 69.195965 152.309918 105.549941 138.298809 125.595487-14.008039 20.047592-88.115873 5.632277-187.312106-63.517639-99.19828-69.194942-172.807764-139.201365-144.56349-175.556365 28.246321-36.353976 94.333482 44.328601 193.530738 113.523543l0.046049-0.045026z" fill="#9C6601" p-id="3748"></path><path d="M667.17364 506.786255m-36.633338 0a36.633339 36.633339 0 1 0 73.266677 0 36.633339 36.633339 0 1 0-73.266677 0Z" fill="#FFF582" p-id="3749"></path><path d="M805.977963 536.824385m-70.372767 0a70.372767 70.372767 0 1 0 140.745534 0 70.372767 70.372767 0 1 0-140.745534 0Z" fill="#FFF582" p-id="3750"></path></svg>