<?xml version="1.0" standalone="no"?><!DOCTYPE svg PUBLIC "-//W3C//DTD SVG 1.1//EN" "http://www.w3.org/Graphics/SVG/1.1/DTD/svg11.dtd"><svg t="1512376906346" class="icon" style="" viewBox="0 0 1024 1024" version="1.1" xmlns="http://www.w3.org/2000/svg" p-id="2411" xmlns:xlink="http://www.w3.org/1999/xlink" width="32" height="32"><defs><style type="text/css"></style></defs><path d="M512 0C229.248 0 0 229.248 0 512c0 282.752 229.248 512 512 512 282.752 0 512-229.248 512-512C1024 229.248 794.752 0 512 0zM508.8 812.672c-36.032-1.024-64.32-25.92-63.168-63.616 1.152-37.696 30.848-61.76 66.88-60.736 37.632 1.088 65.088 26.752 63.936 64.448C575.296 790.464 546.432 813.76 508.8 812.672zM676.16 468.032C666.56 481.152 644.864 497.92 617.664 518.4L587.52 538.432c-14.592 10.944-27.584 23.68-32.384 38.336C552.64 584.512 551.04 591.296 550.464 604.736 550.336 607.36 548.608 613.44 540.16 613.44L455.04 613.44c-9.472 0-10.496-5.376-10.432-8 1.344-36.8 2.688-62.4 17.792-79.488 26.048-29.504 85.44-66.24 85.44-66.24 9.088-6.528 16.384-13.696 21.888-21.504 10.048-13.376 18.432-28.096 18.432-44.16 0-18.496-5.632-35.328-16.832-50.496C560.128 328.256 539.648 320.64 509.952 320.64c-29.248 0-49.92 9.344-62.144 28.096C439.424 361.6 433.92 374.72 431.296 388.224c-0.896 17.152-6.208 18.88-17.28 18.88L331.968 407.104c-7.296 0-9.088-4.352-10.752-16.96 6.144-60.416 30.848-103.872 74.112-130.432C425.152 241.28 461.76 232 505.152 232c57.024 0 104.448 13.12 142.208 39.424C685.12 297.664 704 336.576 704 388.16 704 419.776 692.48 446.4 676.16 468.032z" p-id="2412" fill="#888888"></path></svg>